# xmcd
#
# Track frame offsets: 
#        150
#        20527
#        37570
#        60490
#        82455
#        104992
#        123490
#        142395
#        158870
#        184867
#
# Disc length: 2773 seconds
#
# Revision: 0
# Processed by: cddbd v1.5.2PL0 Copyright (c) Steve Scherf et al.
# Submitted via: ExactAudioCopy v0.99pb5
#
DISCID=910ad30a
DTITLE=Greg Brown - American Knight
DYEAR=2004
DGENRE=Blues
TTITLE0=Intropective Man
TTITLE1=Redneck Love
TTITLE2=Middleclass Blues
TTITLE3=American Knight
TTITLE4=Don't Wanna Lose Control
TTITLE5=The American Book Of The Dead
TTITLE6=One Step
TTITLE7=Blood And Soul
TTITLE8=No Surprise
TTITLE9=Madman's Eye
EXTD=
EXTT0=
EXTT1=
EXTT2=
EXTT3=
EXTT4=
EXTT5=
EXTT6=
EXTT7=
EXTT8=
EXTT9=
PLAYORDER=
